<?xml version="1.0" standalone="no"?>
<!DOCTYPE svg PUBLIC "-//W3C//DTD SVG 20010904//EN"
 "http://www.w3.org/TR/2001/REC-SVG-20010904/DTD/svg10.dtd">
<svg version="1.0" xmlns="http://www.w3.org/2000/svg"
 width="170.000000pt" height="170.000000pt" viewBox="0 0 170.000000 170.000000"
 preserveAspectRatio="xMidYMid meet">
<metadata>
Created by potrace 1.11, written by Peter Selinger 2001-2013
</metadata>
<g transform="translate(0.000000,170.000000) scale(0.100000,-0.100000)"
fill="#000000" stroke="none">
<path d="M806 1663 c-3 -8 -10 -12 -15 -9 -5 4 -16 -1 -25 -9 -8 -8 -26 -16
-40 -17 -13 -1 -24 -6 -23 -11 1 -5 -7 -11 -19 -13 -28 -5 -83 -34 -64 -34 10
0 11 -3 4 -8 -7 -4 -12 -43 -13 -97 -2 -77 -4 -112 -11 -135 -1 -3 -5 5 -10
17 -6 14 -15 21 -23 17 -8 -3 -21 2 -30 10 -9 9 -23 16 -31 16 -9 0 -16 5 -16
10 0 6 -7 10 -15 10 -8 0 -15 6 -15 13 0 9 -3 8 -9 -2 -6 -10 -10 -10 -13 -1
-2 6 -16 13 -31 13 -23 2 -25 4 -12 13 14 10 12 12 -9 10 -16 0 -26 -7 -26
-16 0 -12 -2 -12 -9 -2 -7 11 -9 10 -15 -3 -3 -9 -10 -13 -16 -10 -5 3 -10 3
-10 -2 0 -4 -11 -13 -25 -20 -19 -8 -24 -8 -19 0 3 7 -4 1 -15 -13 -11 -14
-21 -19 -21 -12 0 7 -5 10 -10 7 -6 -4 -7 -11 -4 -17 5 -7 1 -9 -9 -5 -11 4
-21 -1 -28 -14 -6 -12 -17 -18 -25 -15 -17 7 -18 -6 -2 -22 9 -9 9 -15 0 -24
-7 -7 -12 -19 -12 -27 0 -11 4 -10 16 5 13 16 13 14 -1 -9 -17 -30 -13 -63 6
-51 8 4 9 3 5 -5 -4 -6 -12 -8 -18 -5 -6 4 -5 -3 2 -16 8 -16 9 -20 1 -15 -13
7 -9 -35 5 -56 4 -8 3 -9 -5 -5 -12 8 -9 -33 5 -55 4 -8 3 -9 -5 -5 -12 8 -9
-33 5 -55 4 -8 3 -9 -4 -5 -19 12 -14 -12 6 -24 12 -8 12 -10 2 -7 -10 3 -16
-2 -16 -14 0 -12 7 -19 18 -19 10 0 21 -7 24 -15 4 -8 10 -12 15 -9 5 3 12 -1
15 -10 3 -8 12 -12 19 -10 7 3 16 0 20 -5 3 -6 12 -8 18 -5 7 4 9 4 5 -1 -4
-4 -2 -15 5 -24 11 -14 10 -14 -5 -2 -16 12 -18 11 -18 -3 0 -9 -3 -15 -8 -15
-26 4 -47 -5 -74 -33 -17 -18 -28 -27 -24 -20 4 6 3 12 -1 12 -5 0 -9 -15 -9
-34 0 -19 3 -33 7 -30 4 2 11 -1 15 -7 4 -7 3 -9 -4 -5 -6 3 -13 2 -17 -4 -3
-5 -1 -10 6 -10 10 0 10 -3 1 -12 -16 -16 -15 -31 1 -22 9 5 9 4 0 -6 -10 -11
-9 -16 5 -27 11 -9 12 -12 3 -11 -7 2 -16 -3 -19 -11 -3 -10 0 -11 9 -5 12 7
12 5 0 -9 -11 -14 -11 -17 0 -17 10 0 10 -3 1 -12 -19 -19 -14 -32 6 -17 14
11 13 10 -2 -9 -12 -13 -14 -22 -7 -22 7 0 9 -5 4 -12 -4 -7 -8 -42 -9 -78 -1
-40 1 -57 6 -45 7 19 8 18 15 -6 3 -14 13 -26 21 -27 8 -1 20 -3 28 -4 8 -1
12 -7 9 -15 -3 -8 0 -11 9 -8 8 3 21 -1 28 -10 7 -8 23 -15 37 -15 13 0 22 -4
19 -8 -2 -4 5 -9 16 -9 11 -1 30 -10 41 -20 11 -10 17 -12 13 -5 -8 13 32 34
48 24 5 -3 6 0 2 6 -5 8 0 12 12 12 11 0 25 7 32 15 7 9 15 13 18 11 6 -7 62
26 62 36 0 4 11 8 25 8 22 0 25 -4 26 -37 0 -21 1 -75 1 -120 1 -45 4 -82 7
-81 27 2 41 -4 35 -14 -5 -8 0 -7 11 2 10 8 16 10 12 3 -4 -7 1 -14 13 -18 11
-3 20 -11 20 -16 0 -5 11 -9 24 -9 13 0 26 -5 28 -10 2 -6 13 -12 25 -13 12 0
19 -5 17 -9 -3 -4 1 -8 8 -9 7 0 23 -2 36 -3 14 -2 21 2 18 9 -2 7 4 12 17 11
15 -1 21 4 19 14 -2 8 -1 12 3 8 11 -10 66 13 58 25 -3 5 -1 7 5 4 14 -9 43 3
36 14 -3 5 -2 9 3 8 22 -4 43 2 38 11 -4 6 1 7 11 3 13 -5 16 -3 11 10 -3 8
-1 18 6 21 9 3 9 5 0 5 -9 1 -10 8 -3 25 5 13 6 27 3 30 -3 3 -6 20 -5 38 0
18 -5 36 -11 40 -8 5 -7 8 4 8 12 0 15 7 11 25 -3 20 0 25 17 25 12 0 19 -4
16 -10 -3 -5 1 -10 9 -10 9 0 16 -4 16 -9 0 -5 16 -12 35 -15 20 -4 33 -10 31
-14 -3 -5 5 -9 16 -9 12 -1 24 -7 28 -13 4 -7 10 -11 14 -11 3 1 8 0 11 0 3
-1 11 -2 18 -3 6 -1 11 -8 9 -16 -2 -11 2 -10 11 3 8 9 24 17 36 17 12 0 19 4
16 10 -3 6 3 10 14 10 12 0 21 5 21 10 0 6 9 10 21 10 13 0 18 4 13 13 -4 6
-4 9 1 5 4 -4 15 -2 23 5 13 10 14 9 7 -3 -4 -8 4 -4 20 10 16 14 25 18 20 10
-5 -8 4 -4 18 9 30 27 33 32 16 28 -6 -1 -12 8 -14 20 -1 13 3 23 9 23 6 0 4
5 -4 10 -13 9 -13 10 0 10 13 0 13 1 0 10 -13 9 -13 10 0 10 13 0 13 1 0 10
-11 7 -11 10 -2 10 8 0 10 5 5 12 -11 18 -10 62 2 70 7 5 7 10 0 15 -5 5 -10
15 -10 23 0 8 5 18 10 23 6 4 4 11 -5 17 -13 9 -13 11 0 20 13 9 13 10 0 10
-13 0 -13 1 0 10 13 9 13 10 0 10 -13 0 -13 1 0 10 13 9 13 10 0 10 -12 0 -13
2 -1 9 11 7 11 9 0 14 -12 5 -12 6 0 6 11 1 11 4 0 18 -12 15 -12 16 1 8 13
-8 13 -7 1 8 -7 9 -20 17 -28 17 -8 0 -21 7 -29 15 -9 8 -24 15 -33 15 -10 0
-25 8 -32 18 -13 15 -12 16 4 3 15 -12 17 -12 10 4 -5 15 -3 17 11 12 10 -4
15 -3 11 3 -3 6 1 10 10 10 9 0 13 4 10 10 -3 5 0 7 8 4 8 -3 18 0 22 5 3 6
11 8 17 5 7 -4 8 -2 4 4 -4 7 0 12 11 13 11 0 13 2 5 6 -10 4 -9 10 5 25 11
13 13 18 4 16 -7 -2 -16 3 -18 10 -3 6 1 12 9 12 10 0 9 3 -2 10 -13 9 -13 10
0 10 13 0 13 1 0 10 -13 9 -13 10 0 10 13 0 13 1 0 10 -13 9 -13 10 0 10 13 0
13 1 0 10 -13 9 -13 10 0 10 13 0 13 1 0 10 -13 9 -13 10 0 10 13 0 13 1 0 10
-13 9 -13 10 0 10 13 0 13 1 0 10 -11 7 -11 10 -2 10 8 0 10 5 5 13 -11 17
-10 61 2 70 7 5 7 10 0 15 -5 4 -10 14 -10 22 0 8 5 18 10 23 6 4 4 11 -5 17
-10 7 -11 13 -4 18 15 11 -6 46 -31 50 -11 2 -26 11 -32 20 -7 9 -13 12 -13 7
0 -5 -5 -4 -11 2 -6 6 -18 9 -27 6 -10 -4 -13 -2 -8 5 4 7 1 12 -8 12 -9 0
-16 5 -16 10 0 6 -14 10 -31 10 -25 0 -30 3 -25 17 6 16 6 16 -12 0 -10 -9
-29 -17 -41 -17 -12 0 -19 -4 -16 -10 4 -6 -7 -10 -25 -10 -23 0 -31 -4 -27
-14 3 -8 -1 -13 -11 -13 -35 0 -43 -3 -36 -15 5 -8 2 -9 -9 -5 -10 3 -17 2
-17 -3 0 -5 -7 -6 -17 -3 -11 5 -14 3 -8 -6 6 -10 3 -11 -13 -2 -28 15 -35 28
-21 37 8 4 9 3 5 -4 -4 -7 -2 -12 4 -12 7 0 9 7 6 16 -3 9 -6 18 -6 20 0 3 -4
2 -10 -1 -6 -3 -7 1 -4 9 3 9 10 13 15 10 5 -3 6 2 3 10 -3 9 -11 13 -18 9 -6
-3 -6 -1 2 8 14 16 17 103 2 94 -5 -3 -7 0 -4 9 5 12 -17 32 -46 42 -3 1 -15
5 -27 9 -13 4 -20 11 -17 16 3 5 -7 9 -21 9 -14 0 -38 9 -54 21 -34 25 -78 31
-85 12z m-194 -806 c1 -31 -1 -57 -5 -57 -5 0 -5 -4 -2 -10 3 -5 1 -10 -5 -10
-6 0 -13 7 -16 15 -4 8 -10 12 -15 9 -6 -3 -21 1 -34 10 -13 9 -32 16 -42 17
-16 0 -16 1 2 9 17 7 17 9 3 9 -11 1 -15 6 -12 16 4 8 10 13 14 10 5 -3 14 1
22 8 20 20 48 28 49 14 0 -7 5 -2 11 11 16 32 26 16 30 -51z m516 41 c18 -8
29 -18 25 -23 -5 -4 4 -5 20 -3 15 3 30 1 34 -5 3 -6 1 -7 -5 -3 -8 4 -12 0
-12 -11 0 -12 -17 -25 -51 -40 -61 -28 -63 -28 -80 -5 -12 15 -12 16 1 5 13
-10 15 -6 12 28 -3 25 -8 37 -16 33 -6 -3 -3 1 6 9 13 10 14 17 6 25 -15 15
13 10 60 -10z m-963 -478 c3 -5 1 -10 -4 -10 -6 0 -11 5 -11 10 0 6 2 10 4 10
3 0 8 -4 11 -10z"/>
</g>
</svg>
